<?xml version="1.0" encoding="utf-8"?>
<!-- Generator: Adobe Illustrator 21.0.2, SVG Export Plug-In . SVG Version: 6.00 Build 0)  -->
<svg version="1.1" id="Layer_1" xmlns="http://www.w3.org/2000/svg" xmlns:xlink="http://www.w3.org/1999/xlink" x="0px" y="0px"
	 viewBox="0 0 750 750" style="enable-background:new 0 0 750 750;" xml:space="preserve">
<style type="text/css">
	.st0{fill:none;stroke:url(#SVGID_1_);stroke-width:4;stroke-miterlimit:10;}
	.st1{fill:none;stroke:url(#SVGID_2_);stroke-width:4;stroke-miterlimit:10;}
	.st2{fill:none;stroke:url(#SVGID_3_);stroke-width:4;stroke-miterlimit:10;}
	.st3{fill:none;stroke:url(#SVGID_4_);stroke-width:4;stroke-miterlimit:10;}
	.st4{fill:none;stroke:url(#SVGID_5_);stroke-width:4;stroke-miterlimit:10;}
	.st5{fill:none;stroke:url(#SVGID_6_);stroke-width:4;stroke-miterlimit:10;}
	.st6{fill:none;stroke:url(#SVGID_7_);stroke-width:4;stroke-miterlimit:10;}
</style>
<linearGradient id="SVGID_1_" gradientUnits="userSpaceOnUse" x1="90.75" y1="350.8221" x2="248.11" y2="350.8221">
	<stop  offset="0" style="stop-color:#00FFFF"/>
	<stop  offset="3.806278e-02" style="stop-color:#0BF4FF"/>
	<stop  offset="0.1053" style="stop-color:#29D6FF"/>
	<stop  offset="0.1939" style="stop-color:#59A6FF"/>
	<stop  offset="0.3004" style="stop-color:#9C63FF"/>
	<stop  offset="0.421" style="stop-color:#F10EFF"/>
	<stop  offset="0.4405" style="stop-color:#FF00FF"/>
	<stop  offset="0.4696" style="stop-color:#FF01FA"/>
	<stop  offset="0.5063" style="stop-color:#FD03EA"/>
	<stop  offset="0.5471" style="stop-color:#FB06D0"/>
	<stop  offset="0.5908" style="stop-color:#F80BAC"/>
	<stop  offset="0.6368" style="stop-color:#F4107E"/>
	<stop  offset="0.6841" style="stop-color:#F01847"/>
	<stop  offset="0.7107" style="stop-color:#ED1C24"/>
	<stop  offset="1" style="stop-color:#F7931E"/>
</linearGradient>
<path class="st0" d="M246.1,391.1c0,22.1-7.9,39.6-23.8,52.3c-15.8,12.7-37.6,19.1-65.3,19.1c-14.9,0-28.7-3.1-41.3-9.3
	c-6.8-3.5-12.4-8.5-16.6-15.1c-4.2-6.5-6.4-14.1-6.4-22.7c0-8.6,2.4-15.7,7.3-21.3c4.9-5.6,11.6-8.4,20.2-8.4
	c8.6,0,15.3,2.1,20.2,6.4c4.9,4.2,7.3,9.7,7.3,16.5c0,6.7-0.9,12.5-2.8,17.2h-10.2c-1.2,3.3-1.9,7.2-1.9,11.6s1.8,8.7,5.3,12.7
	c3.5,4,8.7,6.1,15.5,6.1c6.8,0,12-1.1,15.5-3.3c3.5-2.2,6.2-4.8,8.1-7.9c1.9-3.1,3.3-8,4.3-14.6c1.2-9.5,1.9-24.1,1.9-43.8
	c0-19.6-1.7-33.4-5.1-41.3c-3.4-7.9-11.1-11.8-23.1-11.8c-12,0-25.2,4.4-39.4,13.3l-5.3-2.5v-99l5-3.7c12.6,1.9,31.8,4.1,57.4,6.7
	c25.7,2.6,40.5,3.9,44.5,3.9c4,0,6.9-1,8.7-3c1.8-2,3.3-5.3,4.5-10.1l4.7,0.6c-3.1,31.7-7.1,50.5-12.1,56.5
	c-2.7,3.1-6.1,4.6-10.2,4.6s-12.8-1.8-26.1-5.3l-67.7-17.7l-1.5,60.2c15.1-8.1,30.7-12.1,46.9-12.1c16.1,0,29.6,1.8,40.4,5.4
	c10.8,3.6,19,8.6,24.8,15.1C240.6,359,246.1,373.8,246.1,391.1z"/>
<linearGradient id="SVGID_2_" gradientUnits="userSpaceOnUse" x1="257.8884" y1="349.07" x2="381.59" y2="349.07">
	<stop  offset="0" style="stop-color:#00FFFF"/>
	<stop  offset="3.806278e-02" style="stop-color:#0BF4FF"/>
	<stop  offset="0.1053" style="stop-color:#29D6FF"/>
	<stop  offset="0.1939" style="stop-color:#59A6FF"/>
	<stop  offset="0.3004" style="stop-color:#9C63FF"/>
	<stop  offset="0.421" style="stop-color:#F10EFF"/>
	<stop  offset="0.4405" style="stop-color:#FF00FF"/>
	<stop  offset="0.4696" style="stop-color:#FF01FA"/>
	<stop  offset="0.5063" style="stop-color:#FD03EA"/>
	<stop  offset="0.5471" style="stop-color:#FB06D0"/>
	<stop  offset="0.5908" style="stop-color:#F80BAC"/>
	<stop  offset="0.6368" style="stop-color:#F4107E"/>
	<stop  offset="0.6841" style="stop-color:#F01847"/>
	<stop  offset="0.7107" style="stop-color:#ED1C24"/>
	<stop  offset="1" style="stop-color:#F7931E"/>
</linearGradient>
<polygon class="st1" points="379.6,453.5 379.6,459.4 262.2,459.4 262.2,453.5 294.8,453.5 294.8,250.2 260.7,254.5 260.1,248.3 
	330.2,238.7 355.4,238.7 355.4,453.5 "/>
<linearGradient id="SVGID_3_" gradientUnits="userSpaceOnUse" x1="394.66" y1="291.17" x2="505.45" y2="291.17">
	<stop  offset="0" style="stop-color:#00FFFF"/>
	<stop  offset="3.806278e-02" style="stop-color:#0BF4FF"/>
	<stop  offset="0.1053" style="stop-color:#29D6FF"/>
	<stop  offset="0.1939" style="stop-color:#59A6FF"/>
	<stop  offset="0.3004" style="stop-color:#9C63FF"/>
	<stop  offset="0.421" style="stop-color:#F10EFF"/>
	<stop  offset="0.4405" style="stop-color:#FF00FF"/>
	<stop  offset="0.4696" style="stop-color:#FF01FA"/>
	<stop  offset="0.5063" style="stop-color:#FD03EA"/>
	<stop  offset="0.5471" style="stop-color:#FB06D0"/>
	<stop  offset="0.5908" style="stop-color:#F80BAC"/>
	<stop  offset="0.6368" style="stop-color:#F4107E"/>
	<stop  offset="0.6841" style="stop-color:#F01847"/>
	<stop  offset="0.7107" style="stop-color:#ED1C24"/>
	<stop  offset="1" style="stop-color:#F7931E"/>
</linearGradient>
<path class="st2" d="M489.6,252.1c-9.2-8.9-22-13.4-38.5-13.4s-29.6,5.1-39.6,15.2c-9.9,10.1-14.9,22.8-14.9,38
	c0,15.2,4.6,27.6,13.8,37.2c9.2,9.6,21.9,14.4,38.2,14.4c16.2,0,29.4-4.8,39.6-14.4c10.1-9.6,15.2-22.7,15.2-39.1
	C503.5,273.6,498.8,261,489.6,252.1z M463.7,325.3c-0.8,5.2-2.3,8.7-4.5,10.5c-2.2,1.9-5.1,2.8-8.8,2.8c-3.7,0-6.7-0.9-8.8-2.6
	c-2.2-1.8-3.7-5.1-4.7-9.9c-0.9-4.9-1.5-9.4-1.7-13.5c-0.2-4.1-0.3-11.1-0.3-20.8c0-9.7,0.1-16.8,0.3-21.1c0.2-4.3,0.8-9,1.7-14.1
	s2.5-8.5,4.7-10.2c2.2-1.8,5.1-2.6,8.8-2.6c3.7,0,6.6,0.9,8.7,2.6c2.1,1.8,3.6,5,4.5,9.8c0.9,4.8,1.5,9.4,1.7,13.8
	c0.2,4.5,0.3,12.8,0.3,25.1C465.6,307.4,465,317.5,463.7,325.3z"/>
<linearGradient id="SVGID_4_" gradientUnits="userSpaceOnUse" x1="432.84" y1="291.17" x2="467.58" y2="291.17">
	<stop  offset="0" style="stop-color:#00FFFF"/>
	<stop  offset="3.806278e-02" style="stop-color:#0BF4FF"/>
	<stop  offset="0.1053" style="stop-color:#29D6FF"/>
	<stop  offset="0.1939" style="stop-color:#59A6FF"/>
	<stop  offset="0.3004" style="stop-color:#9C63FF"/>
	<stop  offset="0.421" style="stop-color:#F10EFF"/>
	<stop  offset="0.4405" style="stop-color:#FF00FF"/>
	<stop  offset="0.4696" style="stop-color:#FF01FA"/>
	<stop  offset="0.5063" style="stop-color:#FD03EA"/>
	<stop  offset="0.5471" style="stop-color:#FB06D0"/>
	<stop  offset="0.5908" style="stop-color:#F80BAC"/>
	<stop  offset="0.6368" style="stop-color:#F4107E"/>
	<stop  offset="0.6841" style="stop-color:#F01847"/>
	<stop  offset="0.7107" style="stop-color:#ED1C24"/>
	<stop  offset="1" style="stop-color:#F7931E"/>
</linearGradient>
<path class="st3" d="M465.6,295c0,12.3-0.6,22.4-1.9,30.3c-0.8,5.2-2.3,8.7-4.5,10.5c-2.2,1.9-5.1,2.8-8.8,2.8
	c-3.7,0-6.7-0.9-8.8-2.6c-2.2-1.8-3.7-5.1-4.7-9.9c-0.9-4.9-1.5-9.4-1.7-13.5c-0.2-4.1-0.3-11.1-0.3-20.8c0-9.7,0.1-16.8,0.3-21.1
	c0.2-4.3,0.8-9,1.7-14.1s2.5-8.5,4.7-10.2c2.2-1.8,5.1-2.6,8.8-2.6c3.7,0,6.6,0.9,8.7,2.6c2.1,1.8,3.6,5,4.5,9.8
	c0.9,4.8,1.5,9.4,1.7,13.8C465.5,274.4,465.6,282.7,465.6,295z"/>
<linearGradient id="SVGID_5_" gradientUnits="userSpaceOnUse" x1="431.6133" y1="350.775" x2="581.7923" y2="350.775">
	<stop  offset="0" style="stop-color:#00FFFF"/>
	<stop  offset="3.806278e-02" style="stop-color:#0BF4FF"/>
	<stop  offset="0.1053" style="stop-color:#29D6FF"/>
	<stop  offset="0.1939" style="stop-color:#59A6FF"/>
	<stop  offset="0.3004" style="stop-color:#9C63FF"/>
	<stop  offset="0.421" style="stop-color:#F10EFF"/>
	<stop  offset="0.4405" style="stop-color:#FF00FF"/>
	<stop  offset="0.4696" style="stop-color:#FF01FA"/>
	<stop  offset="0.5063" style="stop-color:#FD03EA"/>
	<stop  offset="0.5471" style="stop-color:#FB06D0"/>
	<stop  offset="0.5908" style="stop-color:#F80BAC"/>
	<stop  offset="0.6368" style="stop-color:#F4107E"/>
	<stop  offset="0.6841" style="stop-color:#F01847"/>
	<stop  offset="0.7107" style="stop-color:#ED1C24"/>
	<stop  offset="1" style="stop-color:#F7931E"/>
</linearGradient>
<polygon class="st4" points="578.3,242.1 447.9,459.4 435.2,459.4 565.8,242.1 "/>
<linearGradient id="SVGID_6_" gradientUnits="userSpaceOnUse" x1="509.21" y1="410.065" x2="620" y2="410.065">
	<stop  offset="0" style="stop-color:#00FFFF"/>
	<stop  offset="3.806278e-02" style="stop-color:#0BF4FF"/>
	<stop  offset="0.1053" style="stop-color:#29D6FF"/>
	<stop  offset="0.1939" style="stop-color:#59A6FF"/>
	<stop  offset="0.3004" style="stop-color:#9C63FF"/>
	<stop  offset="0.421" style="stop-color:#F10EFF"/>
	<stop  offset="0.4405" style="stop-color:#FF00FF"/>
	<stop  offset="0.4696" style="stop-color:#FF01FA"/>
	<stop  offset="0.5063" style="stop-color:#FD03EA"/>
	<stop  offset="0.5471" style="stop-color:#FB06D0"/>
	<stop  offset="0.5908" style="stop-color:#F80BAC"/>
	<stop  offset="0.6368" style="stop-color:#F4107E"/>
	<stop  offset="0.6841" style="stop-color:#F01847"/>
	<stop  offset="0.7107" style="stop-color:#ED1C24"/>
	<stop  offset="1" style="stop-color:#F7931E"/>
</linearGradient>
<path class="st5" d="M604.2,371c-9.2-8.9-22-13.4-38.5-13.4c-16.5,0-29.6,5.1-39.6,15.2c-9.9,10.1-14.9,22.8-14.9,38
	c0,15.2,4.6,27.6,13.8,37.3c9.2,9.6,21.9,14.4,38.2,14.4c16.2,0,29.4-4.8,39.6-14.4c10.1-9.6,15.2-22.7,15.2-39.1
	S613.4,379.8,604.2,371z M578.3,444.2c-0.8,5.2-2.3,8.7-4.5,10.6c-2.2,1.9-5.1,2.8-8.8,2.8c-3.7,0-6.7-0.9-8.8-2.6s-3.7-5.1-4.7-9.9
	c-0.9-4.9-1.5-9.4-1.7-13.5c-0.2-4.1-0.3-11.1-0.3-20.8c0-9.7,0.1-16.8,0.3-21.1c0.2-4.3,0.8-9,1.7-14.1c0.9-5.1,2.5-8.5,4.7-10.2
	c2.2-1.8,5.1-2.6,8.8-2.6c3.7,0,6.6,0.9,8.7,2.6c2.1,1.8,3.6,5,4.5,9.8s1.5,9.4,1.7,13.8c0.2,4.5,0.3,12.9,0.3,25.3
	C580.1,426.5,579.5,436.6,578.3,444.2z"/>
<linearGradient id="SVGID_7_" gradientUnits="userSpaceOnUse" x1="547.39" y1="410.065" x2="582.13" y2="410.065">
	<stop  offset="0" style="stop-color:#00FFFF"/>
	<stop  offset="3.806278e-02" style="stop-color:#0BF4FF"/>
	<stop  offset="0.1053" style="stop-color:#29D6FF"/>
	<stop  offset="0.1939" style="stop-color:#59A6FF"/>
	<stop  offset="0.3004" style="stop-color:#9C63FF"/>
	<stop  offset="0.421" style="stop-color:#F10EFF"/>
	<stop  offset="0.4405" style="stop-color:#FF00FF"/>
	<stop  offset="0.4696" style="stop-color:#FF01FA"/>
	<stop  offset="0.5063" style="stop-color:#FD03EA"/>
	<stop  offset="0.5471" style="stop-color:#FB06D0"/>
	<stop  offset="0.5908" style="stop-color:#F80BAC"/>
	<stop  offset="0.6368" style="stop-color:#F4107E"/>
	<stop  offset="0.6841" style="stop-color:#F01847"/>
	<stop  offset="0.7107" style="stop-color:#ED1C24"/>
	<stop  offset="1" style="stop-color:#F7931E"/>
</linearGradient>
<path class="st6" d="M580.1,414.1c0,12.4-0.6,22.5-1.9,30.1c-0.8,5.2-2.3,8.7-4.5,10.6c-2.2,1.9-5.1,2.8-8.8,2.8
	c-3.7,0-6.7-0.9-8.8-2.6s-3.7-5.1-4.7-9.9c-0.9-4.9-1.5-9.4-1.7-13.5c-0.2-4.1-0.3-11.1-0.3-20.8c0-9.7,0.1-16.8,0.3-21.1
	c0.2-4.3,0.8-9,1.7-14.1c0.9-5.1,2.5-8.5,4.7-10.2c2.2-1.8,5.1-2.6,8.8-2.6c3.7,0,6.6,0.9,8.7,2.6c2.1,1.8,3.6,5,4.5,9.8
	s1.5,9.4,1.7,13.8C580,393.3,580.1,401.7,580.1,414.1z"/>
</svg>
