<?xml version="1.0" encoding="utf-8"?>
<!-- Generator: Adobe Illustrator 21.0.2, SVG Export Plug-In . SVG Version: 6.00 Build 0)  -->
<svg version="1.1" id="Layer_1" xmlns="http://www.w3.org/2000/svg" xmlns:xlink="http://www.w3.org/1999/xlink" x="0px" y="0px"
	 viewBox="0 0 50 50" style="enable-background:new 0 0 50 50;" xml:space="preserve">
<path d="M45.9,8.2H11.7c-1.7,0-3.1,1.4-3.1,3.1v34.2c0,1.7,1.4,3.1,3.1,3.1H29h8h8.7c1.7,0,3.1-1.4,3.1-3.1V11.4
	C49,9.6,47.6,8.2,45.9,8.2z M31.2,46.6V31.7h-5V28h5v-5.3c0-2.1,0.6-3.9,1.7-5c1.1-1.1,2.8-1.7,4.7-1.7c1.4,0,2.6,0.1,3.5,0.1v3.2
	H39c-3.9,0-4,2.8-4,3.9V28h5.6l-0.5,3.7H35v14.9H31.2z M47,45.5c0,0.6-0.5,1.1-1.1,1.1H37V33.7h4.9l1-7.7H37v-2.8
	c0-0.7,0.1-1.1,0.3-1.4c0.3-0.3,0.8-0.5,1.6-0.5H43v-7.1l-0.9-0.1c-0.5-0.1-2.3-0.3-4.6-0.3c-2.5,0-4.6,0.8-6.1,2.3
	C29.9,17.8,29,20,29,22.7V26h-5v7.7h5v12.9H11.7c-0.6,0-1.1-0.5-1.1-1.1V11.4c0-0.6,0.5-1.1,1.1-1.1h34.2c0.6,0,1.1,0.5,1.1,1.1
	V45.5z"/>
</svg>
