<?xml version="1.0" encoding="utf-8"?>
<!-- Generator: Adobe Illustrator 21.0.2, SVG Export Plug-In . SVG Version: 6.00 Build 0)  -->
<svg version="1.1" id="Layer_1" xmlns="http://www.w3.org/2000/svg" xmlns:xlink="http://www.w3.org/1999/xlink" x="0px" y="0px"
	 viewBox="0 0 50 50" style="enable-background:new 0 0 50 50;" xml:space="preserve">
<style type="text/css">
	.st0{fill:#334F8D;}
</style>
<path class="st0" d="M44.9,7.2H10.7c-1.7,0-3.1,1.4-3.1,3.1v34.2c0,1.7,1.4,3.1,3.1,3.1H28h8h8.7c1.7,0,3.1-1.4,3.1-3.1V10.4
	C48,8.6,46.6,7.2,44.9,7.2z M30.2,45.6V30.7h-5V27h5v-5.3c0-2.1,0.6-3.9,1.7-5s2.8-1.7,4.7-1.7c1.4,0,2.6,0.1,3.5,0.1v3.2H38
	c-3.9,0-4,2.8-4,3.9V27h5.6l-0.5,3.7H34v14.9H30.2z M46,44.5c0,0.6-0.5,1.1-1.1,1.1H36V32.7h4.9l1-7.7H36v-2.8
	c0-0.7,0.1-1.1,0.3-1.4c0.3-0.3,0.8-0.5,1.6-0.5H42v-7.1l-0.9-0.1c-0.5-0.1-2.3-0.3-4.6-0.3c-2.5,0-4.6,0.8-6.1,2.3
	C28.9,16.8,28,19,28,21.7V25h-5v7.7h5v12.9H10.7c-0.6,0-1.1-0.5-1.1-1.1V10.4c0-0.6,0.5-1.1,1.1-1.1h34.2c0.6,0,1.1,0.5,1.1,1.1
	V44.5z"/>
</svg>
