<!--?xml version="1.0" encoding="utf-8"?-->
<!-- Generator: Adobe Illustrator 21.0.2, SVG Export Plug-In . SVG Version: 6.00 Build 0)  -->
<svg version="1.1" id="Layer_1" xmlns="http://www.w3.org/2000/svg" xmlns:xlink="http://www.w3.org/1999/xlink" x="0px" y="0px" viewBox="0 0 552 270" style="" xml:space="preserve">
<style type="text/css">
	.st0{fill:none;stroke:#334F8D;stroke-width:5;stroke-miterlimit:10;}
</style>
<path class="st0 AnJSJgao_0" d="M164.5,179c0,22.1-7.9,39.6-23.8,52.3c-15.8,12.7-37.6,19.1-65.3,19.1c-14.9,0-28.7-3.1-41.3-9.3
	c-6.8-3.5-12.4-8.5-16.6-15.1c-4.2-6.5-6.4-14.1-6.4-22.7s2.4-15.7,7.3-21.3s11.6-8.4,20.2-8.4s15.3,2.1,20.2,6.4
	c4.9,4.2,7.3,9.7,7.3,16.5c0,6.7-0.9,12.5-2.8,17.2H53.1c-1.2,3.3-1.9,7.2-1.9,11.6S53,234,56.5,238s8.7,6.1,15.5,6.1
	s12-1.1,15.5-3.3s6.2-4.8,8.1-7.9c1.9-3.1,3.3-8,4.3-14.6c1.2-9.5,1.9-24.1,1.9-43.8c0-19.6-1.7-33.4-5.1-41.3s-11.1-11.8-23.1-11.8
	s-25.2,4.4-39.4,13.3l-5.3-2.5v-99l5-3.7c12.6,1.9,31.8,4.1,57.4,6.7c25.7,2.6,40.5,3.9,44.5,3.9s6.9-1,8.7-3s3.3-5.3,4.5-10.1
	l4.7,0.6c-3.1,31.7-7.1,50.5-12.1,56.5c-2.7,3.1-6.1,4.6-10.2,4.6s-12.8-1.8-26.1-5.3L37.6,65.7l-1.5,60.2
	c15.1-8.1,30.7-12.1,46.9-12.1c16.1,0,29.6,1.8,40.4,5.4s19,8.6,24.8,15.1C159,146.9,164.5,161.7,164.5,179z"></path>
<path class="st0 AnJSJgao_1" d="M298,241.4v5.9H180.6v-5.9h32.6V38.1l-34.1,4.3l-0.6-6.2l70.1-9.6h25.2v214.8H298z"></path>
<path class="st0 AnJSJgao_2" d="M408,40c-9.2-8.9-22-13.4-38.5-13.4s-29.6,5.1-39.6,15.2C320,51.9,315,64.6,315,79.8s4.6,27.6,13.8,37.2
	c9.2,9.6,21.9,14.4,38.2,14.4c16.2,0,29.4-4.8,39.6-14.4c10.1-9.6,15.2-22.7,15.2-39.1C421.9,61.5,417.2,48.9,408,40z M382.1,113.2
	c-0.8,5.2-2.3,8.7-4.5,10.5c-2.2,1.9-5.1,2.8-8.8,2.8c-3.7,0-6.7-0.9-8.8-2.6c-2.2-1.8-3.7-5.1-4.7-9.9c-0.9-4.9-1.5-9.4-1.7-13.5
	s-0.3-11.1-0.3-20.8s0.1-16.8,0.3-21.1c0.2-4.3,0.8-9,1.7-14.1s2.5-8.5,4.7-10.2c2.2-1.8,5.1-2.6,8.8-2.6c3.7,0,6.6,0.9,8.7,2.6
	c2.1,1.8,3.6,5,4.5,9.8s1.5,9.4,1.7,13.8c0.2,4.5,0.3,12.8,0.3,25.1C384,95.3,383.4,105.4,382.1,113.2z"></path>
<path class="st0 AnJSJgao_3" d="M384,82.9c0,12.3-0.6,22.4-1.9,30.3c-0.8,5.2-2.3,8.7-4.5,10.5c-2.2,1.9-5.1,2.8-8.8,2.8
	c-3.7,0-6.7-0.9-8.8-2.6c-2.2-1.8-3.7-5.1-4.7-9.9c-0.9-4.9-1.5-9.4-1.7-13.5s-0.3-11.1-0.3-20.8s0.1-16.8,0.3-21.1
	c0.2-4.3,0.8-9,1.7-14.1s2.5-8.5,4.7-10.2c2.2-1.8,5.1-2.6,8.8-2.6c3.7,0,6.6,0.9,8.7,2.6c2.1,1.8,3.6,5,4.5,9.8s1.5,9.4,1.7,13.8
	C383.9,62.3,384,70.6,384,82.9z"></path>
<path class="st0 AnJSJgao_4" d="M496.7,30L366.3,247.3h-12.7L484.2,30H496.7z"></path>
<path class="st0 AnJSJgao_5" d="M522.6,158.9c-9.2-8.9-22-13.4-38.5-13.4s-29.6,5.1-39.6,15.2c-9.9,10.1-14.9,22.8-14.9,38s4.6,27.6,13.8,37.3
	c9.2,9.6,21.9,14.4,38.2,14.4c16.2,0,29.4-4.8,39.6-14.4c10.1-9.6,15.2-22.7,15.2-39.1S531.8,167.7,522.6,158.9z M496.7,232.1
	c-0.8,5.2-2.3,8.7-4.5,10.6s-5.1,2.8-8.8,2.8s-6.7-0.9-8.8-2.6s-3.7-5.1-4.7-9.9c-0.9-4.9-1.5-9.4-1.7-13.5s-0.3-11.1-0.3-20.8
	s0.1-16.8,0.3-21.1c0.2-4.3,0.8-9,1.7-14.1s2.5-8.5,4.7-10.2c2.2-1.8,5.1-2.6,8.8-2.6s6.6,0.9,8.7,2.6c2.1,1.8,3.6,5,4.5,9.8
	s1.5,9.4,1.7,13.8c0.2,4.5,0.3,12.9,0.3,25.3C498.5,214.4,497.9,224.5,496.7,232.1z"></path>
<path class="st0 AnJSJgao_6" d="M498.5,202c0,12.4-0.6,22.5-1.9,30.1c-0.8,5.2-2.3,8.7-4.5,10.6s-5.1,2.8-8.8,2.8s-6.7-0.9-8.8-2.6
	s-3.7-5.1-4.7-9.9c-0.9-4.9-1.5-9.4-1.7-13.5s-0.3-11.1-0.3-20.8s0.1-16.8,0.3-21.1c0.2-4.3,0.8-9,1.7-14.1s2.5-8.5,4.7-10.2
	c2.2-1.8,5.1-2.6,8.8-2.6s6.6,0.9,8.7,2.6c2.1,1.8,3.6,5,4.5,9.8s1.5,9.4,1.7,13.8C498.4,181.2,498.5,189.6,498.5,202z"></path>
<style>.AnJSJgao_0{stroke-dasharray:1207 1209;stroke-dashoffset:1208;animation:AnJSJgao_draw 745ms linear 0ms forwards;}.AnJSJgao_1{stroke-dasharray:741 743;stroke-dashoffset:742;animation:AnJSJgao_draw 457ms linear 745ms forwards;}.AnJSJgao_2{stroke-dasharray:560 562;stroke-dashoffset:561;animation:AnJSJgao_draw 346ms linear 1203ms forwards;}.AnJSJgao_3{stroke-dasharray:222 224;stroke-dashoffset:223;animation:AnJSJgao_draw 137ms linear 1549ms forwards;}.AnJSJgao_4{stroke-dasharray:533 535;stroke-dashoffset:534;animation:AnJSJgao_draw 329ms linear 1686ms forwards;}.AnJSJgao_5{stroke-dasharray:560 562;stroke-dashoffset:561;animation:AnJSJgao_draw 346ms linear 2016ms forwards;}.AnJSJgao_6{stroke-dasharray:222 224;stroke-dashoffset:223;animation:AnJSJgao_draw 137ms linear 2362ms forwards;}@keyframes AnJSJgao_draw{100%{stroke-dashoffset:0;}}@keyframes AnJSJgao_fade{0%{stroke-opacity:1;}94.02985074626866%{stroke-opacity:1;}100%{stroke-opacity:0;}}</style></svg>
