<!--?xml version="1.0" encoding="utf-8"?-->
<!-- Generator: Adobe Illustrator 21.0.2, SVG Export Plug-In . SVG Version: 6.00 Build 0)  -->
<svg version="1.1" id="Layer_1" xmlns="http://www.w3.org/2000/svg" xmlns:xlink="http://www.w3.org/1999/xlink" x="0px" y="0px" viewBox="0 0 656 270" style="" xml:space="preserve">
<style type="text/css">
	.st0{fill:none;stroke:#DB0FC1;stroke-width:5;}
</style>
<g>
	<path class="st0 mBAHYIjn_0" d="M18.3,151.9c0-39.9,9-70.8,26.8-92.4c17.9-21.7,42.5-32.6,73.7-32.6c21.3,0,37.6,4.3,49.1,12.9
		S185,59.5,185,73.4c0,7.9-2.5,14.6-7.6,20.3s-11.7,8.6-20,8.6c-8.3,0-14.9-2.2-19.9-6.6c-5-4.5-7.4-9.8-7.4-15.8
		c0-6.1,0.8-11.4,2.4-16h9.9c1.3-3.3,1.9-7,1.9-11.2c0-13.1-7.3-19.5-22-19.5S96.8,40.7,90,55.9s-10.3,41.3-10.5,78.6
		c10.7-16.8,26.3-25.2,46.9-25.2s36.7,5.6,48.4,16.6c11.8,11.1,17.7,27.7,17.7,49.8s-7.8,40.2-23.3,54
		c-15.5,13.8-36.3,20.8-62.4,20.8C47.8,250.6,18.3,217.7,18.3,151.9z M110.5,119.6c-7,0-13,2.6-17.8,7.9c-4.9,5.3-8.2,11.5-9.9,18.6
		S80,162.6,80,174s0,19.4,0.2,23.9c0.1,4.5,0.4,9.8,1,15.8c0.5,6.1,1.3,10.5,2.3,13.4c1.1,2.8,2.4,5.8,4.4,8.9
		c3.3,5.4,8.6,8.1,15.8,8.1s12.7-1.4,16.3-4.2c3.6-2.8,6.2-7.5,7.9-14.1c2.4-9.8,3.7-21.8,3.7-36.3c0-14.4-0.1-24.1-0.2-28.9
		c-0.1-4.8-0.4-9.8-0.8-15c-0.4-5.3-1.1-9.3-2-12c-1-2.7-2.1-5.3-3.6-7.8C122.3,121.7,117.5,119.6,110.5,119.6z"></path>
	<path class="st0 mBAHYIjn_1" d="M209.4,151.9c0-39.9,9-70.8,26.8-92.4c17.9-21.7,42.5-32.6,73.8-32.6c21.3,0,37.6,4.3,49.1,12.9
		c11.4,8.6,17.1,19.8,17.1,33.6c0,7.9-2.5,14.6-7.6,20.3c-5.1,5.7-11.7,8.6-20,8.6s-14.9-2.2-19.9-6.6c-5-4.5-7.4-9.8-7.4-15.8
		c0-6.1,0.8-11.4,2.4-16h9.9c1.3-3.3,1.9-7,1.9-11.2c0-13.1-7.3-19.5-22-19.5c-14.7,0-25.5,7.6-32.3,22.8s-10.3,41.4-10.5,78.7
		c10.7-16.8,26.3-25.2,46.9-25.2c20.5,0,36.7,5.6,48.4,16.6c11.8,11.1,17.7,27.7,17.7,49.8s-7.8,40.2-23.3,54
		c-15.5,13.8-36.3,20.8-62.4,20.8C239,250.6,209.4,217.7,209.4,151.9z M301.7,119.6c-7,0-13,2.6-17.8,7.9
		c-4.9,5.3-8.2,11.5-9.9,18.6s-2.6,16.5-2.6,27.9s0,19.4,0.2,23.9c0.1,4.5,0.4,9.8,1,15.8c0.5,6.1,1.3,10.5,2.3,13.4
		s2.4,5.8,4.4,8.9c3.3,5.4,8.6,8.1,15.8,8.1c7.2,0,12.7-1.4,16.3-4.2c3.6-2.8,6.2-7.5,7.9-14.1c2.4-9.8,3.7-21.8,3.7-36.3
		c0-14.4-0.1-24.1-0.2-28.9c-0.1-4.8-0.4-9.8-0.8-15c-0.4-5.3-1.1-9.3-2-12c-1-2.7-2.1-5.3-3.6-7.8
		C313.6,121.7,308.7,119.6,301.7,119.6z"></path>
	<path class="st0 mBAHYIjn_2" d="M451.4,131.8c-16.3,0-29-4.8-38.1-14.4s-13.8-22-13.8-37.3s5-27.9,14.9-38c9.9-10.1,23.1-15.2,39.6-15.2
		s29.3,4.5,38.5,13.4c9.2,8.9,13.8,21.6,13.8,38s-5.1,29.4-15.2,39.1C480.8,126.9,467.7,131.8,451.4,131.8z M439.6,44.7
		c-1,5.1-1.5,9.8-1.8,14.1c-0.2,4.4-0.3,11.4-0.3,21.1c0,9.8,0.1,16.7,0.3,20.8c0.2,4.1,0.8,8.7,1.8,13.5c1,4.9,2.4,8.2,4.7,9.9
		c2.1,1.8,5.2,2.6,8.9,2.6s6.6-1,8.9-2.8c2.1-1.9,3.7-5.4,4.5-10.5c1.3-7.9,1.9-17.9,1.9-30.2S468.2,62.4,468,58s-0.8-9.1-1.8-13.8
		s-2.4-8-4.5-9.8c-2-1.8-5-2.6-8.7-2.6c-3.7,0-6.6,0.9-8.9,2.6C442.1,36.2,440.5,39.6,439.6,44.7z M437.9,247.5L568.6,30.3H581
		L450.6,247.5H437.9z M565.9,250.6c-16.3,0-29-4.8-38.1-14.4c-9.2-9.7-13.8-22-13.8-37.3s5-27.9,14.9-38
		c9.9-10.1,23.1-15.2,39.6-15.2c16.5,0,29.3,4.5,38.5,13.4c9.2,8.9,13.8,21.6,13.8,38s-5.1,29.4-15.2,39.1
		C595.3,245.8,582.1,250.6,565.9,250.6z M554.1,163.6c-1,5.1-1.5,9.8-1.8,14.1c-0.2,4.4-0.3,11.4-0.3,21.1c0,9.8,0.1,16.7,0.3,20.8
		c0.2,4.1,0.8,8.7,1.8,13.5c1,4.9,2.4,8.2,4.7,9.9c2.1,1.8,5.2,2.6,8.9,2.6s6.6-1,8.9-2.8c2.1-1.9,3.7-5.4,4.5-10.5
		c1.3-7.6,1.9-17.7,1.9-30.1c0-12.4-0.1-20.9-0.3-25.3c-0.2-4.5-0.8-9.1-1.8-13.8c-1-4.8-2.4-8-4.5-9.8c-2-1.8-5-2.6-8.7-2.6
		c-3.7,0-6.6,0.9-8.9,2.6C556.6,155.1,555,158.5,554.1,163.6z"></path>
</g>
<style>.mBAHYIjn_0{stroke-dasharray:1296 1298;stroke-dashoffset:1297;animation:mBAHYIjn_draw 763ms linear 0ms forwards;}.mBAHYIjn_1{stroke-dasharray:1296 1298;stroke-dashoffset:1297;animation:mBAHYIjn_draw 763ms linear 763ms forwards;}.mBAHYIjn_2{stroke-dasharray:1653 1655;stroke-dashoffset:1654;animation:mBAHYIjn_draw 973ms linear 1526ms forwards;}@keyframes mBAHYIjn_draw{100%{stroke-dashoffset:0;}}@keyframes mBAHYIjn_fade{0%{stroke-opacity:1;}94.02985074626866%{stroke-opacity:1;}100%{stroke-opacity:0;}}</style></svg>
