<?xml version="1.0" encoding="utf-8"?>
<!-- Generator: Adobe Illustrator 21.0.2, SVG Export Plug-In . SVG Version: 6.00 Build 0)  -->
<svg version="1.1" id="Layer_1" xmlns="http://www.w3.org/2000/svg" xmlns:xlink="http://www.w3.org/1999/xlink" x="0px" y="0px"
	 viewBox="0 0 50 50" style="enable-background:new 0 0 50 50;" xml:space="preserve">
<style type="text/css">
	.st0{fill:#DB0FC1;}
</style>
<path class="st0" d="M48.2,28.6v-0.9c0-0.8,0-1.5,0-2.3c0-1.8,0-3.7,0-5.6c0-1.6-0.2-3-0.4-4.1c-0.8-4-3.1-6.7-7-8.1
	c-1.9-0.7-3.9-0.8-5.6-0.8c-4.1-0.1-7.6-0.1-10.8-0.1c-0.4,0-1,0-1.4,0h-0.4c-2.2,0-4.6,0-6.8,0.4c-3,0.6-5.3,2-7,4.2
	c-1.3,1.9-2.1,4-2.2,6.7c-0.4,6.1-0.3,12.3-0.1,18.1c0,1.7,0.2,3,0.5,4.3c1,3.5,3,5.8,6.3,7.2c2.2,0.9,4.4,1,6.1,1
	c4.6,0.1,8.5,0.1,12.2,0.1H32c2.2,0,4.6,0,6.8-0.4c3.2-0.5,5.6-2.1,7.3-4.6c1.2-1.8,1.9-3.9,2-6.5c0.1-2.2,0.2-4.5,0.2-6.6
	C48.2,30,48.2,29.2,48.2,28.6L48.2,28.6z M46,34.8c0,1.7-0.2,3.3-0.4,4.7c-0.7,3.6-3.3,6.1-7,6.6c-2,0.3-3.9,0.4-6.3,0.4
	c-1.6,0-3.3,0-4.9,0c-2.2,0-4.7,0-7-0.1c-1.8,0-3.4-0.2-4.8-0.4c-3.6-0.7-6.1-3.3-6.7-7c-0.2-1.1-0.4-2.5-0.4-4.1s0-3.3,0-4.9v-1.2
	H8.4l0.1-3.5c0-2.1,0.1-4.2,0.2-6.4c0-1.3,0.2-2.3,0.5-3.4c0.9-3.4,3.3-5.6,6.8-6.1C18.1,9,20.1,9,22.3,8.9c4,0,8.2,0,12.2,0
	c1.9,0,3.4,0.2,4.8,0.4c3.6,0.8,5.8,3.2,6.5,6.9c0.2,1.3,0.4,2.7,0.4,4.3C46,25.9,46,30.6,46,34.8z"/>
<path class="st0" d="M27,17L27,17c-2.8,0-5.5,1.1-7.5,3.1s-3,4.6-3,7.4s1.1,5.5,3.1,7.4c2,2,4.6,3.1,7.4,3.1l0,0
	c2.8,0,5.5-1.1,7.4-3.1c2-2,3.1-4.6,3.1-7.4C37.4,21.6,32.7,17,27,17z M32.8,33.3c-1.5,1.5-3.6,2.5-5.9,2.5l0,0
	c-4.6,0-8.3-3.7-8.3-8.3s3.7-8.3,8.3-8.3c2.3,0,4.4,0.9,5.8,2.5c1.6,1.4,2.6,3.5,2.6,5.7S34.4,31.7,32.8,33.3z"/>
<circle class="st0" cx="38.7" cy="15.5" r="2"/>
</svg>
