<!--?xml version="1.0" encoding="utf-8"?-->
<!-- Generator: Adobe Illustrator 21.0.2, SVG Export Plug-In . SVG Version: 6.00 Build 0)  -->
<svg version="1.1" id="Layer_1" xmlns="http://www.w3.org/2000/svg" xmlns:xlink="http://www.w3.org/1999/xlink" x="0px" y="0px" viewBox="0 0 633 270" style="" xml:space="preserve">
<style type="text/css">
	.st0{fill:none;stroke:#41AAF2;stroke-width:5;stroke-miterlimit:10;}
</style>
<g>
	<path class="st0 OcjfVqQB_0" d="M37.4,35.7c12.4-9,30.8-13.5,55.2-13.5c47.2,0,70.8,16.4,70.8,49.4c0,13.5-5.6,24.5-16.6,33.3
		s-27,15-47.6,18.5v0.6c25.6,1.9,44.6,7.8,56.8,18s18.3,23.3,18.3,39.4c0,19.8-8,35.6-24,47.2s-38.3,17.4-66.8,17.4
		c-11.1,0-21.6-1.3-31.2-3.7c-9.6-2.4-18.2-7.4-25.8-14.8c-7.5-7.3-11.3-16.1-11.3-26.2c0-10.2,2.4-18,7.3-23.6
		c4.9-5.6,11.5-8.4,20-8.4s15.2,2.2,20.1,6.6c5,4.5,7.4,9.8,7.4,15.8c0,6.1-0.8,11.3-2.4,15.6h-9.6c-1.3,3.3-1.9,6.7-1.9,10.3
		c0,14.7,8.7,22,26.1,22c12.2,0,20.5-4.7,25-14c4.5-9.3,6.6-22.8,6.6-40.4s-2.2-30.4-6.4-38.3c-4.2-7.9-10.5-14-18.8-18.2
		c-7.4,1.7-16.4,3-27,4l-1-6.8c18.2-1.9,30.2-6.3,35.9-13c5.7-6.8,8.5-19,8.5-36.5s-1.7-30-5.1-37.5c-3.4-7.5-9.2-11.3-17.2-11.3
		S69,30.1,65.6,35s-5.1,9.5-5.1,13.8s0.6,8.2,1.9,11.5h9c1.7,4.3,2.4,9.6,2.4,15.6s-2.5,11.3-7.7,15.8c-5.2,4.5-12,6.6-20.5,6.6
		s-15.1-2.7-19.7-8.2c-4.7-5.5-6.9-12.3-6.9-20.6C18.7,56,25,44.7,37.4,35.7z"></path>
	<path class="st0 OcjfVqQB_1" d="M364.8,120.9c0,40.2-8.7,71-26.2,92.6S296.9,246,265.8,246c-21.7,0-38.7-4.1-51-12.4
		c-12.3-8.3-18.5-19.1-18.5-32.3c0-8.3,2.5-15.4,7.6-21.6c5.1-6.1,11.8-9.2,20.1-9.2s15,2.2,19.8,6.6c4.9,4.5,7.3,9.8,7.3,15.8
		c0,6.1-0.8,11.4-2.4,16h-9.3c-1.5,3.1-2.2,7.1-2.2,11.9c0,4.9,2.2,9.2,6.6,13c4.5,3.8,11,5.8,19.7,5.8c13.9,0,23.9-7.5,30.3-22.7
		c6.4-15.1,9.6-41.3,9.8-78.9c-10.8,16.7-27.1,25.1-49.1,25.1c-18.7,0-33.9-6-45.9-18c-12-12-18-28.4-18-49.4
		c0-24.8,8.2-43.3,24.6-55.5s37.5-18.3,63.1-18.3C336,22.2,364.8,55.1,364.8,120.9z M272.6,153.2c7,0,13-2.6,17.9-7.9
		c4.9-5.3,8.2-11.5,10-18.7c1.8-7.1,2.6-16.4,2.6-28s-0.1-19.4-0.2-23.9c-0.1-4.5-0.4-9.7-0.8-15.8c-0.4-6.1-1.2-10.6-2.2-13.4
		c-1.1-2.8-2.3-5.8-4-8.9c-3.1-5.4-8.8-8.1-17.1-8.1c-9.3,0-16.2,3.7-20.8,11.1c-3.5,6-5.6,16.3-6.3,31.1
		c-0.2,5.2-0.3,12.1-0.3,20.9s0,15.5,0.2,20.3c0.1,4.8,0.4,9.8,0.8,15.1c0.4,5.3,1.1,9.3,2.1,11.9c1,2.7,2.2,5.3,3.6,7.7
		C260.7,151.1,265.6,153.2,272.6,153.2z"></path>
	<path class="st0 OcjfVqQB_2" d="M436,127.2c-16.2,0-28.9-4.8-38.2-14.5c-9.2-9.6-13.8-22-13.8-37.2s5-27.9,14.9-38
		c10-10.2,23.2-15.2,39.6-15.2c16.4,0,29.3,4.5,38.5,13.4s13.8,21.6,13.8,38s-5.1,29.5-15.2,39.1C465.4,122.3,452.2,127.2,436,127.2
		z M424.2,40.1c-1,5.1-1.5,9.8-1.7,14.1s-0.3,11.3-0.3,21.1s0.1,16.6,0.3,20.8c0.2,4.1,0.8,8.6,1.7,13.5c1,4.9,2.4,8.2,4.7,10
		c2.2,1.8,5.1,2.6,8.9,2.6c3.7,0,6.6-1,8.8-2.8s3.7-5.4,4.5-10.6c1.3-7.8,1.9-18,1.9-30.3s-0.1-20.7-0.3-25.1
		c-0.2-4.5-0.8-9.1-1.7-13.8c-1-4.8-2.4-8-4.5-9.8c-2.1-1.8-5-2.6-8.7-2.6c-3.7,0-6.6,0.9-8.9,2.6C426.6,31.6,425.2,35,424.2,40.1z
		 M422.5,242.9L553.1,25.6h12.4L435.2,242.9H422.5z M550.6,246c-16.2,0-28.9-4.8-38.2-14.5c-9.2-9.6-13.8-22-13.8-37.2
		c0-15.2,5-27.9,14.9-38c10-10.2,23.2-15.2,39.6-15.2c16.4,0,29.3,4.5,38.5,13.4c9.2,8.9,13.8,21.6,13.8,38s-5.1,29.5-15.2,39.1
		C580,241.2,566.8,246,550.6,246z M538.7,158.9c-1,5.1-1.5,9.8-1.7,14.1c-0.2,4.3-0.3,11.3-0.3,21.1c0,9.8,0.1,16.6,0.3,20.8
		c0.2,4.1,0.8,8.6,1.7,13.5c1,4.9,2.4,8.2,4.7,10c2.2,1.8,5.1,2.6,8.9,2.6c3.7,0,6.6-1,8.8-2.8c2.2-1.9,3.7-5.4,4.5-10.6
		c1.3-7.6,1.9-17.7,1.9-30.1c0-12.4-0.1-20.8-0.3-25.3c-0.2-4.5-0.8-9.1-1.7-13.8c-1-4.8-2.4-8-4.5-9.8c-2.1-1.8-5-2.6-8.7-2.6
		s-6.6,0.9-8.9,2.6C541.2,150.4,539.6,153.8,538.7,158.9z"></path>
</g>
<style>.OcjfVqQB_0{stroke-dasharray:1236 1238;stroke-dashoffset:1237;animation:OcjfVqQB_draw 737ms linear 0ms forwards;}.OcjfVqQB_1{stroke-dasharray:1299 1301;stroke-dashoffset:1300;animation:OcjfVqQB_draw 775ms linear 737ms forwards;}.OcjfVqQB_2{stroke-dasharray:1653 1655;stroke-dashoffset:1654;animation:OcjfVqQB_draw 986ms linear 1513ms forwards;}@keyframes OcjfVqQB_draw{100%{stroke-dashoffset:0;}}@keyframes OcjfVqQB_fade{0%{stroke-opacity:1;}94.02985074626866%{stroke-opacity:1;}100%{stroke-opacity:0;}}</style></svg>
