<?xml version="1.0" encoding="utf-8"?>
<!-- Generator: Adobe Illustrator 21.0.2, SVG Export Plug-In . SVG Version: 6.00 Build 0)  -->
<svg version="1.1" id="Layer_1" xmlns="http://www.w3.org/2000/svg" xmlns:xlink="http://www.w3.org/1999/xlink" x="0px" y="0px"
	 viewBox="0 0 50 50" style="enable-background:new 0 0 50 50;" xml:space="preserve">
<style type="text/css">
	.st0{fill:none;stroke:#41AAF2;stroke-width:2;stroke-miterlimit:10;}
</style>
<path class="st0" d="M46.3,12.8c-0.6,1.8-1.8,3.2-3.3,4.4c0,0,0,0.1,0.1,0.1c0.7-0.2,1.4-0.3,2.1-0.5s1.4-0.5,2.2-0.7
	c-0.2,0.3-0.3,0.4-0.4,0.5c-0.9,1.3-2,2.4-3.3,3.4c-0.3,0.2-0.4,0.5-0.4,0.8c-0.2,1.7-0.2,3.5-0.5,5.1c-1.5,7-5.1,12.5-11.4,16.1
	c-2.9,1.7-6.1,2.7-9.4,2.9c-3.8,0.4-7.6,0.2-11.2-1.4c-1.2-0.5-2.4-1.2-3.6-1.7c-0.2-0.1-0.3-0.2-0.4-0.3c2.1-0.1,4.2,0,6.3-0.6
	c2-0.6,3.9-1.6,5.8-2.9c-1.8-0.2-3.4-0.6-4.8-1.7c-1.5-1-2.5-2.3-3-4c1.2,0,2.3,0.1,3.5-0.2c-1.8-0.5-3.4-1.5-4.6-3
	s-1.8-3.2-1.7-5.3c1.1,0.5,2.3,0.9,3.6,1C8.3,21.7,7.6,18,9.5,13.6c0.6,0.6,1.3,1.3,1.9,1.8c3.3,3.3,7.1,5.4,11.6,6.3
	c1.1,0.3,2.3,0.4,3.5,0.5c0.1,0,0.2,0,0.2,0c0-0.6,0-1.3,0-1.8c-0.1-4,2.8-7.4,6.4-8.1c2.7-0.6,5.3,0,7.4,1.9
	c0.5,0.4,0.9,0.5,1.5,0.4c1.3-0.5,2.6-1,3.8-1.5C45.8,13,46,13,46.3,12.8z"/>
</svg>
